<svg width="184" height="48" viewBox="0 0 184 48" fill="none" xmlns="http://www.w3.org/2000/svg">
<path d="M41.8794 15.9824H38.7089L29.099 38.5212L19.4892 15.9824H16.3203L27.5662 41.653H30.6319L41.8794 15.9824Z" fill="#009245"/>
<mask id="mask0_822_42542" style="mask-type:luminance" maskUnits="userSpaceOnUse" x="104" y="16" width="27" height="27">
<path d="M104.801 16.4434H130.698V42.4534H104.801V16.4434Z" fill="white"/>
</mask>
<g mask="url(#mask0_822_42542)">
<path fill-rule="evenodd" clip-rule="evenodd" d="M117.599 42.4486H117.562L117.467 42.447H117.443C114.001 42.3657 110.882 40.9202 108.603 38.6315C106.256 36.276 104.801 33.0247 104.801 29.4468V16.4434H106.202C110.54 16.4434 114.485 18.1407 117.324 20.9919C119.29 22.9666 120.725 25.4879 121.393 28.3805L121.405 28.4411L121.432 28.5606L121.439 28.5909L121.447 28.6196C121.456 28.6706 121.467 28.72 121.477 28.771L121.483 28.8013L121.489 28.83L121.513 28.9511L121.526 29.0117L121.553 29.1631L121.558 29.195L121.564 29.2252L121.585 29.3464L121.589 29.3782L121.594 29.4085L121.615 29.5312L121.62 29.5615L121.624 29.5934L121.629 29.6237L121.642 29.7161L121.647 29.7464L121.651 29.7783L121.656 29.8085L121.659 29.8388L121.669 29.901L121.674 29.9329L121.68 29.9934L121.683 30.0253L121.696 30.1193L121.702 30.1831L121.707 30.2134V30.2165C121.777 30.8381 121.813 31.474 121.813 32.1211V33.6606C121.813 33.8487 121.777 34.0256 121.71 34.1898C121.693 34.2312 121.675 34.2695 121.656 34.3093L121.643 34.3316V34.3332L121.629 34.3555L121.618 34.3762L121.616 34.3794C121.594 34.4161 121.57 34.4527 121.547 34.4878L121.543 34.4894L121.529 34.5085C121.493 34.5579 121.455 34.6025 121.412 34.6456L121.41 34.6488L121.394 34.6631L121.393 34.6647L121.378 34.6806L121.374 34.6838L121.355 34.7014V34.703L121.337 34.7189L121.334 34.7205L121.32 34.7316L121.316 34.7364L121.302 34.7476L121.296 34.7524L121.275 34.7683L121.255 34.7842L121.25 34.789L121.234 34.8002L121.229 34.8034C121.218 34.8129 121.204 34.8209 121.191 34.8305L121.169 34.8448L121.166 34.8464L121.147 34.8591H121.145L121.129 34.8703L121.124 34.8735L121.107 34.883L121.102 34.8862L121.08 34.899H121.078L121.056 34.9101L121.055 34.9117L121.037 34.9213L121.009 34.9356L120.986 34.9452H120.985L120.961 34.9564L120.937 34.9659H120.936L120.917 34.9755H120.912L120.891 34.9835L120.888 34.985L120.863 34.9946L120.859 34.9962L120.837 35.0026L120.818 35.009L120.793 35.0169L120.761 35.0249H120.76L120.734 35.0313L120.726 35.0345H120.721L120.696 35.0408H120.691L120.682 35.044L120.658 35.0488H120.655L120.628 35.052L120.606 35.0568H120.598L120.577 35.06H120.574L120.552 35.0631H120.547L120.52 35.0663H120.517L120.493 35.0679H120.482H120.474H120.453L120.445 35.0695H120.437H120.41C119.636 35.0695 119.008 34.4384 119.008 33.6606V32.1211C119.008 28.4411 117.606 25.2584 115.34 22.9825C113.324 20.9569 110.618 19.6436 107.603 19.3312V29.4468C107.603 32.247 108.744 34.7922 110.583 36.641C112.392 38.4578 114.877 39.5974 117.611 39.6324H117.619H117.621H117.632H117.633H117.732H117.733H117.746C120.534 39.6324 123.07 38.4865 124.909 36.6394C126.747 34.7922 127.889 32.2454 127.889 29.4452V19.336C126.321 19.5081 124.839 19.964 123.498 20.6525C122.373 21.231 121.342 21.9721 120.437 22.8439C119.93 22.047 119.357 21.3011 118.727 20.611C119.773 19.6404 120.952 18.8117 122.229 18.155C124.362 17.0617 126.762 16.4434 129.292 16.4434H130.695V29.4468C130.695 33.0247 129.238 36.276 126.893 38.6315C124.546 40.9871 121.309 42.4502 117.748 42.4502H117.618H117.616H117.608H117.606H117.602H117.599V42.4486Z" fill="#1B9644"/>
</g>
<path d="M64.7479 28.0595C64.7479 34.9891 61.3219 38.1734 55.8521 38.1734C49.4112 38.1734 46.8564 33.7061 46.8564 28.0595C46.8564 22.3602 49.4636 17.9439 55.9045 17.9439C61.936 17.9439 64.5432 21.898 64.7479 28.0595ZM69.8591 40.8939C67.6105 35.8625 67.9168 30.6764 67.8136 28.0595C67.5074 20.0493 63.0595 14.9668 55.9045 14.9668C48.1846 14.9668 43.7891 20.819 43.7891 28.0069C43.7891 35.3493 48.3385 41.1505 55.6474 41.1505C60.0953 41.1505 63.3673 39.0978 65.3096 35.9135C65.6159 37.5566 66.0761 39.1998 66.7917 40.8939H69.8591Z" fill="#009245"/>
<path d="M99.4089 28.0595C99.4089 20.768 95.2181 14.9668 87.9076 14.9668C80.5987 14.9668 76.4062 20.768 76.4062 28.0595V40.8939H79.4736V28.0595C79.4736 22.1036 82.1315 17.9439 87.9076 17.9439C93.6836 17.9439 96.3416 22.1036 96.3416 28.0595V40.8939H99.4089V28.0595Z" fill="#009245"/>
<path d="M156.335 28.8193C156.335 35.7489 152.911 38.9317 147.443 38.9317C141.003 38.9317 138.449 34.466 138.449 28.8193C138.449 23.1233 141.054 18.7086 147.493 18.7086C153.525 18.7086 156.131 22.6611 156.335 28.8193ZM161.446 41.6522C159.198 36.6223 159.504 31.4379 159.401 28.8193C159.095 20.8123 154.648 15.7314 147.493 15.7314C139.777 15.7314 135.383 21.5821 135.383 28.7683C135.383 36.1091 139.931 41.9088 147.238 41.9088C151.684 41.9088 154.955 39.856 156.897 36.6733C157.205 38.3165 157.663 39.958 158.379 41.6522H161.446Z" fill="#009245"/>
</svg>
