<svg width="145" height="54" viewBox="0 0 145 54" fill="none" xmlns="http://www.w3.org/2000/svg">
<path d="M25.3153 0.852539H22.1913L12.7223 23.061L3.25331 0.852539H0.130859L11.2119 26.1469H14.2327L25.3153 0.852539Z" fill="#009245"/>
<path d="M50.9661 13.5004C50.9661 20.3285 47.5904 23.4661 42.2007 23.4661C35.8542 23.4661 33.3368 19.0643 33.3368 13.5004C33.3368 7.88466 35.9058 3.5331 42.2523 3.5331C48.1955 3.5331 50.7644 7.42925 50.9661 13.5004ZM56.0024 26.1468C53.7868 21.189 54.0886 16.079 53.9869 13.5004C53.6852 5.60759 49.3025 0.599609 42.2523 0.599609C34.6455 0.599609 30.3145 6.36609 30.3145 13.4486C30.3145 20.6834 34.7972 26.3996 41.999 26.3996C46.3817 26.3996 49.6058 24.3769 51.5196 21.2393C51.8214 22.8584 52.2748 24.4774 52.98 26.1468H56.0024Z" fill="#009245"/>
<path d="M83.6695 13.6264C83.6695 6.44182 79.5401 0.725586 72.3367 0.725586C65.1349 0.725586 61.0039 6.44182 61.0039 13.6264V26.2727H64.0263V13.6264C64.0263 7.7578 66.6453 3.65908 72.3367 3.65908C78.0281 3.65908 80.6471 7.7578 80.6471 13.6264V26.2727H83.6695V13.6264Z" fill="#009245"/>
<mask id="mask0_816_9338" style="mask-type:luminance" maskUnits="userSpaceOnUse" x="88" y="0" width="27" height="27">
<path d="M88.668 0.685547H114.185V26.3144H88.668V0.685547Z" fill="white"/>
</mask>
<g mask="url(#mask0_816_9338)">
<path fill-rule="evenodd" clip-rule="evenodd" d="M101.278 26.3096H101.242L101.148 26.3081H101.125C97.7336 26.228 94.6596 24.8036 92.4143 22.5486C90.1018 20.2275 88.668 17.0239 88.668 13.4984V0.685547H90.0486C94.3234 0.685547 98.2105 2.35802 101.008 5.16745C102.945 7.11316 104.358 9.59753 105.017 12.4478L105.029 12.5075L105.056 12.6252L105.062 12.6551L105.07 12.6833C105.079 12.7336 105.09 12.7823 105.1 12.8325L105.106 12.8624L105.112 12.8906L105.136 13.01L105.148 13.0697L105.175 13.2189L105.179 13.2503L105.186 13.2801L105.206 13.3994L105.211 13.4309L105.215 13.4607L105.236 13.5816L105.24 13.6115L105.245 13.6429L105.25 13.6727L105.262 13.7638L105.267 13.7936L105.272 13.825L105.276 13.8549L105.279 13.8847L105.289 13.9459L105.293 13.9774L105.3 14.037L105.303 14.0684L105.315 14.1611L105.322 14.2239L105.326 14.2537V14.2569C105.395 14.8693 105.431 15.4959 105.431 16.1335V17.6505C105.431 17.8358 105.395 18.0101 105.329 18.1719C105.312 18.2127 105.295 18.2504 105.276 18.2896L105.264 18.3116V18.3132L105.25 18.3352L105.239 18.3556L105.237 18.3587C105.215 18.3949 105.192 18.431 105.168 18.4655L105.165 18.4671L105.151 18.486C105.115 18.5346 105.078 18.5786 105.035 18.621L105.034 18.6241L105.018 18.6383L105.017 18.6398L105.003 18.6556L104.998 18.6587L104.979 18.676V18.6775L104.962 18.6932L104.959 18.6948L104.945 18.7058L104.942 18.7105L104.928 18.7215L104.921 18.7262L104.901 18.7419L104.881 18.7576L104.876 18.7623L104.86 18.7733L104.856 18.7765C104.845 18.7859 104.831 18.7937 104.818 18.8032L104.796 18.8173L104.793 18.8189L104.774 18.8314H104.773L104.757 18.8424L104.752 18.8456L104.735 18.855L104.731 18.8581L104.709 18.8707H104.707L104.685 18.8817L104.684 18.8833L104.666 18.8927L104.638 18.9068L104.616 18.9162H104.615L104.591 18.9272L104.568 18.9367H104.566L104.548 18.9461H104.543L104.523 18.9539L104.519 18.9555L104.494 18.9649L104.491 18.9665L104.469 18.9728L104.451 18.9791L104.426 18.9869L104.394 18.9948H104.393L104.368 19.001L104.36 19.0042H104.355L104.33 19.0105H104.326L104.316 19.0136L104.293 19.0183H104.29L104.263 19.0215L104.241 19.0262H104.233L104.213 19.0293H104.21L104.188 19.0324H104.183L104.157 19.0356H104.154L104.13 19.0372H104.119H104.111H104.091L104.083 19.0387H104.075H104.049C103.286 19.0387 102.667 18.4169 102.667 17.6505V16.1335C102.667 12.5075 101.286 9.37139 99.0532 7.12887C97.0659 5.1329 94.4 3.8389 91.4292 3.5311V13.4984C91.4292 16.2576 92.5534 18.7655 94.3656 20.5871C96.1481 22.3774 98.5967 23.5002 101.291 23.5348H101.299H101.3H101.311H101.313H101.41H101.411H101.424C104.171 23.5348 106.669 22.4057 108.482 20.5856C110.292 18.7655 111.418 16.256 111.418 13.4968V3.53581C109.873 3.70541 108.413 4.15454 107.092 4.83295C105.983 5.40301 104.967 6.13324 104.075 6.99224C103.575 6.20705 103.011 5.4721 102.39 4.79212C103.42 3.83575 104.582 3.01915 105.841 2.37215C107.942 1.29486 110.308 0.685547 112.8 0.685547H114.182V13.4984C114.182 17.0239 112.747 20.2275 110.436 22.5486C108.124 24.8696 104.934 26.3112 101.425 26.3112H101.297H101.295H101.288H101.286H101.281H101.278V26.3096Z" fill="#1B9644"/>
</g>
<path d="M139.831 13.4986C139.831 20.3267 136.457 23.4627 131.069 23.4627C124.724 23.4627 122.206 19.0625 122.206 13.4986C122.206 7.88602 124.774 3.53603 131.119 3.53603C137.062 3.53603 139.629 7.43061 139.831 13.4986ZM144.867 26.1434C142.652 21.1872 142.953 16.0788 142.852 13.4986C142.55 5.60895 138.169 0.602539 131.119 0.602539C123.515 0.602539 119.186 6.36745 119.186 13.4484C119.186 20.6816 123.667 26.3962 130.867 26.3962C135.248 26.3962 138.471 24.3736 140.384 21.2375C140.688 22.8566 141.14 24.4741 141.845 26.1434H144.867Z" fill="#009245"/>
<path d="M21.3206 38.2345V39.4097H20.0093V46.3994H18.5495V43.3932H17.0773V43.5541C17.0773 44.1974 16.8546 44.7211 16.4093 45.1252C15.9722 45.5211 15.333 45.719 14.4917 45.719C13.9062 45.719 13.366 45.6242 12.8711 45.4345V44.086C13.4072 44.3582 13.9268 44.4943 14.4299 44.4943C14.7845 44.4943 15.0814 44.4035 15.3206 44.2221C15.5598 44.0407 15.6794 43.752 15.6794 43.3561C15.6794 42.7128 15.2381 42.3912 14.3557 42.3912H13.8856V41.1541H14.2691C15.0278 41.1541 15.4072 40.8613 15.4072 40.2757C15.4072 39.7149 15.0814 39.4345 14.4299 39.4345C14.001 39.4345 13.5804 39.5334 13.168 39.7314V38.42C13.5722 38.2633 14.0216 38.185 14.5165 38.185C15.267 38.185 15.8443 38.3582 16.2484 38.7046C16.6608 39.0427 16.867 39.5087 16.867 40.1025C16.867 40.5314 16.7557 40.8901 16.533 41.1788C16.3185 41.4675 16.0175 41.6654 15.6299 41.7726C15.9845 41.8221 16.2979 41.9664 16.5701 42.2056H18.5495V39.4097H17.535V38.2345H21.3206ZM23.3562 40.9561H21.9583C21.8263 40.6922 21.7604 40.4035 21.7604 40.0901C21.7604 39.5623 21.95 39.1128 22.3294 38.7417C22.7088 38.3706 23.216 38.185 23.8511 38.185C24.5521 38.185 25.1129 38.4077 25.5335 38.853C25.9624 39.2901 26.1768 39.8468 26.1768 40.5231C26.1768 41.4386 25.8676 42.1438 25.249 42.6386C24.6305 43.1252 23.9088 43.3685 23.0841 43.3685H23.0593L25.9542 46.3994H24.0861L21.3521 43.418V42.1932H22.6758C23.3274 42.1932 23.8346 42.0489 24.1975 41.7602C24.5603 41.4633 24.7418 41.0468 24.7418 40.5108C24.7418 39.7685 24.449 39.3974 23.8634 39.3974C23.6325 39.3974 23.4552 39.4757 23.3315 39.6324C23.216 39.7891 23.1583 39.9829 23.1583 40.2139C23.1583 40.4448 23.2243 40.6922 23.3562 40.9561ZM27.2036 38.2345H29.9748V39.4097H28.6634V46.3994H27.2036V38.2345ZM42.2988 42.0448V39.4097H40.4184C40.5998 39.6984 40.6906 40.0613 40.6906 40.4984C40.6906 41.0345 40.5256 41.4757 40.1957 41.8221C39.8741 42.1685 39.4617 42.42 38.9586 42.5767C39.0906 42.9644 39.2803 43.253 39.5277 43.4427C39.7751 43.6324 40.1215 43.7273 40.5669 43.7273C41.1029 43.7273 41.5236 43.5829 41.8287 43.2943C42.1421 43.0056 42.2988 42.5891 42.2988 42.0448ZM35.2844 39.4097V40.9438C35.6555 40.6304 36.0885 40.4737 36.5834 40.4737C37.3751 40.4737 37.9772 40.82 38.3895 41.5128C38.6617 41.3974 38.8761 41.2448 39.0328 41.0551C39.1895 40.8654 39.2679 40.6592 39.2679 40.4365C39.2679 40.0159 39.1442 39.6737 38.8968 39.4097H35.2844ZM45.0576 38.2345V39.4097H43.7462V46.3994H42.2988V44.185C42.1339 44.4159 41.8782 44.6097 41.5318 44.7664C41.1854 44.9231 40.8019 45.0015 40.3813 45.0015C39.9359 45.0015 39.5442 44.9396 39.206 44.8159C38.8761 44.6922 38.6163 44.5314 38.4267 44.3334C38.237 44.1355 38.0761 43.9169 37.9442 43.6778C37.8122 43.4386 37.7009 43.1994 37.6102 42.9602C37.5194 42.7211 37.4246 42.5025 37.3256 42.3046C37.2267 42.1066 37.0947 41.9458 36.9298 41.8221C36.7731 41.6984 36.5792 41.6365 36.3483 41.6365C36.0349 41.6365 35.7792 41.7396 35.5813 41.9458C35.3834 42.1438 35.2844 42.42 35.2844 42.7747V46.3994H33.8246V44.8159C33.4535 45.1623 32.9999 45.3355 32.4638 45.3355C31.7545 45.3355 31.1772 45.1169 30.7318 44.6798C30.2947 44.2427 30.0762 43.6778 30.0762 42.985C30.0762 42.2345 30.3236 41.6365 30.8184 41.1912C31.3215 40.7458 31.9524 40.5231 32.7112 40.5231C32.8349 40.5231 32.9298 40.5273 32.9957 40.5355V41.7108C32.9463 41.7025 32.872 41.6984 32.7731 41.6984C32.4019 41.6984 32.1009 41.818 31.87 42.0572C31.6473 42.2881 31.5359 42.5891 31.5359 42.9602C31.5359 43.3066 31.639 43.5953 31.8452 43.8262C32.0597 44.0572 32.3483 44.1726 32.7112 44.1726C33.0246 44.1726 33.2885 44.0613 33.503 43.8386C33.7174 43.6077 33.8246 43.3149 33.8246 42.9602V39.4097H29.3091V38.2345H45.0576ZM42.3461 37.0716C42.1811 36.8984 42.0986 36.6881 42.0986 36.4407C42.0986 36.1932 42.1811 35.9871 42.3461 35.8221C42.511 35.6489 42.7213 35.5623 42.977 35.5623C43.2244 35.5623 43.4347 35.6489 43.6079 35.8221C43.7811 35.9871 43.8677 36.1932 43.8677 36.4407C43.8677 36.6881 43.7811 36.8984 43.6079 37.0716C43.4347 37.2365 43.2244 37.319 42.977 37.319C42.7213 37.319 42.511 37.2365 42.3461 37.0716ZM52.4044 41.5623V39.4097H50.0539V41.6489C50.0539 42.1025 50.1405 42.4324 50.3136 42.6386C50.4951 42.8365 50.7631 42.9355 51.1178 42.9355C51.4889 42.9355 51.7941 42.8159 52.0332 42.5767C52.2807 42.3293 52.4044 41.9912 52.4044 41.5623ZM55.1755 38.2345V39.4097H53.8642V46.3994H52.4044V43.4922L49.8683 46.3994H48.0126L50.1281 43.987C49.1054 43.7479 48.5941 42.952 48.5941 41.5994V39.4097H47.4188V38.2345H55.1755ZM65.0135 39.4097H60.4857V40.9314C60.8651 40.5767 61.3187 40.3994 61.8465 40.3994C62.564 40.3994 63.1414 40.618 63.5785 41.0551C64.0156 41.4922 64.2341 42.0572 64.2341 42.7499C64.2341 43.5005 63.9826 44.0984 63.4795 44.5437C62.9847 44.9891 62.3579 45.2118 61.5991 45.2118C61.4671 45.2118 61.3723 45.2077 61.3146 45.1994V44.0242C61.364 44.0324 61.4383 44.0365 61.5372 44.0365C61.9084 44.0365 62.2053 43.9211 62.428 43.6901C62.6589 43.451 62.7743 43.1458 62.7743 42.7747C62.7743 42.4283 62.6671 42.1396 62.4527 41.9087C62.2465 41.6778 61.9661 41.5623 61.6115 41.5623C61.2898 41.5623 61.0218 41.6778 60.8073 41.9087C60.5929 42.1314 60.4857 42.42 60.4857 42.7747V46.3994H59.0259V44.8159C58.6548 45.1623 58.2012 45.3355 57.6651 45.3355C56.9558 45.3355 56.3785 45.1169 55.9331 44.6798C55.496 44.2427 55.2775 43.6778 55.2775 42.985C55.2775 42.2345 55.5249 41.6365 56.0197 41.1912C56.5228 40.7458 57.1537 40.5231 57.9125 40.5231C58.0362 40.5231 58.1311 40.5273 58.197 40.5355V41.7108C58.1476 41.7025 58.0733 41.6984 57.9744 41.6984C57.6032 41.6984 57.3022 41.818 57.0713 42.0572C56.8486 42.2881 56.7372 42.5891 56.7372 42.9602C56.7372 43.3066 56.8403 43.5953 57.0465 43.8262C57.261 44.0572 57.5496 44.1726 57.9125 44.1726C58.2259 44.1726 58.4898 44.0613 58.7043 43.8386C58.9187 43.6077 59.0259 43.3149 59.0259 42.9602V39.4097H54.5104V38.2345H65.0135V39.4097ZM57.3085 48.2922C57.3085 47.7973 57.4652 47.3932 57.7786 47.0798C58.092 46.7664 58.5085 46.5809 59.0281 46.5231V46.2633H60.4755V47.587H59.8694C59.1024 47.587 58.7189 47.8427 58.7189 48.354C58.7189 48.5602 58.7931 48.7252 58.9415 48.8489C59.0817 48.9726 59.2838 49.0345 59.5477 49.0345C59.9436 49.0345 60.2982 48.9314 60.6116 48.7252V49.851C60.2735 50.0489 59.8817 50.1479 59.4364 50.1479C58.8096 50.1479 58.2982 49.9747 57.9024 49.6283C57.5065 49.2819 57.3085 48.8365 57.3085 48.2922ZM72.4352 38.2345V39.4097H71.1239V46.3994H69.6765V41.8345H68.6868C67.4249 41.8345 66.794 42.3829 66.794 43.4798C66.794 44.0077 66.9177 44.42 67.1651 44.7169C67.4126 45.0138 67.7837 45.1623 68.2785 45.1623C68.3857 45.1623 68.4641 45.1582 68.5136 45.1499V46.3623C68.3321 46.3788 68.1837 46.387 68.0682 46.387C67.2187 46.387 66.5507 46.119 66.0641 45.5829C65.5775 45.0386 65.3342 44.3334 65.3342 43.4675C65.3342 42.6097 65.6105 41.9252 66.1631 41.4139C66.7239 40.8943 67.5404 40.6345 68.6125 40.6345H69.6765V39.4097H64.3445V38.2345H72.4352ZM66.9129 36.4407V35.2159C67.2593 35.1582 67.5397 35.1293 67.7541 35.1293C68.6531 35.1376 69.3417 35.5128 69.8201 36.2551L71.1685 38.3211H69.6098L68.6448 36.8984C68.4057 36.519 68.0716 36.3293 67.6428 36.3293C67.4118 36.3293 67.1685 36.3664 66.9129 36.4407ZM73.2964 41.0427C73.1314 40.8695 73.0489 40.6592 73.0489 40.4118C73.0489 40.1644 73.1314 39.9541 73.2964 39.7809C73.4696 39.6077 73.6799 39.5211 73.9273 39.5211C74.183 39.5211 74.3933 39.6077 74.5582 39.7809C74.7314 39.9541 74.818 40.1644 74.818 40.4118C74.818 40.6592 74.7314 40.8695 74.5582 41.0427C74.3933 41.2077 74.183 41.2901 73.9273 41.2901C73.6799 41.2901 73.4696 41.2077 73.2964 41.0427ZM73.2964 45.1252C73.1314 44.952 73.0489 44.7417 73.0489 44.4943C73.0489 44.2468 73.1314 44.0365 73.2964 43.8633C73.4696 43.6901 73.6799 43.6035 73.9273 43.6035C74.183 43.6035 74.3933 43.6901 74.5582 43.8633C74.7314 44.0365 74.818 44.2468 74.818 44.4943C74.818 44.7417 74.7314 44.952 74.5582 45.1252C74.3933 45.2901 74.183 45.3726 73.9273 45.3726C73.6799 45.3726 73.4696 45.2901 73.2964 45.1252ZM84.8273 39.4097V41.7602L86.1386 41.0056V40.2386H87.5118V41.3273C87.5118 42.0118 87.817 42.3541 88.4273 42.3541H88.7366V43.5169H88.2046C87.4624 43.5169 87.0912 43.7685 87.0912 44.2716C87.0912 44.4613 87.1654 44.6097 87.3139 44.7169C87.4624 44.8242 87.6438 44.8778 87.8582 44.8778C88.3531 44.8778 88.7654 44.7747 89.0953 44.5685V45.7809C88.7737 45.9541 88.3572 46.0407 87.8459 46.0407C87.2438 46.0407 86.7325 45.9004 86.3118 45.62C85.8912 45.3396 85.6809 44.9231 85.6809 44.3706C85.6809 44.0077 85.7881 43.6984 86.0026 43.4427C86.217 43.187 86.5057 43.0056 86.8685 42.8984C86.6046 42.7499 86.4149 42.5355 86.2995 42.2551L84.8273 43.084V46.3994H83.3551V43.8139L79.5696 46.0035V44.5932L81.8954 43.2819C81.8294 42.8118 81.6892 42.4448 81.4747 42.1809C81.2685 41.9087 80.9304 41.7726 80.4603 41.7726C80.1387 41.7726 79.8211 41.8427 79.5077 41.9829V40.684C79.8129 40.5603 80.1716 40.4984 80.584 40.4984C81.9448 40.4984 82.7613 41.2118 83.0335 42.6386L83.3551 42.453V39.4097H78.4191V38.2345H89.9366V39.4097H84.8273ZM97.3587 38.2345V39.4097H96.0473V46.3994H94.5999V41.8345H93.6102C92.3484 41.8345 91.7174 42.3829 91.7174 43.4798C91.7174 44.0077 91.8411 44.42 92.0886 44.7169C92.336 45.0138 92.7071 45.1623 93.202 45.1623C93.3092 45.1623 93.3875 45.1582 93.437 45.1499V46.3623C93.2556 46.3788 93.1071 46.387 92.9917 46.387C92.1422 46.387 91.4741 46.119 90.9875 45.5829C90.5009 45.0386 90.2576 44.3334 90.2576 43.4675C90.2576 42.6097 90.5339 41.9252 91.0865 41.4139C91.6473 40.8943 92.4638 40.6345 93.536 40.6345H94.5999V39.4097H89.2679V38.2345H97.3587ZM91.8363 36.4407V35.2159C92.1827 35.1582 92.4631 35.1293 92.6775 35.1293C93.5765 35.1376 94.2652 35.5128 94.7435 36.2551L96.092 38.3211H94.5332L93.5683 36.8984C93.3291 36.519 92.9951 36.3293 92.5662 36.3293C92.3353 36.3293 92.092 36.3664 91.8363 36.4407ZM99.7544 38.2345H108.538V39.4097H107.214V46.3994H105.754V41.9211H103.726C104.253 42.251 104.517 42.7747 104.517 43.4922C104.517 44.1602 104.286 44.6922 103.824 45.0881C103.371 45.484 102.769 45.6819 102.018 45.6819C101.441 45.6819 100.921 45.5912 100.46 45.4097V44.1231C100.864 44.3376 101.297 44.4448 101.759 44.4448C102.179 44.4448 102.513 44.3458 102.761 44.1479C103.008 43.9417 103.132 43.6489 103.132 43.2695C103.132 42.8407 102.967 42.5108 102.637 42.2798C102.307 42.0407 101.833 41.9211 101.214 41.9211V40.7211H105.754V39.4097H99.7544V38.2345ZM110.607 38.2345H111.931V39.4097H110.62V46.3994H109.172V39.4097H107.861V38.2345H109.16V37.3809C109.16 37.0427 109.065 36.7829 108.875 36.6015C108.694 36.4118 108.446 36.317 108.133 36.317C107.481 36.317 107.156 36.6716 107.156 37.3809V37.653H105.696V37.3314C105.696 36.5891 105.927 36.0283 106.389 35.6489C106.851 35.2695 107.432 35.0798 108.133 35.0798C108.842 35.0798 109.432 35.2695 109.902 35.6489C110.372 36.0201 110.607 36.5768 110.607 37.319V38.2345ZM119.259 38.2345V39.4097H117.948V46.3994H116.488V44.618C116.026 45.0798 115.42 45.3108 114.67 45.3108C113.952 45.3108 113.342 45.0922 112.839 44.6551C112.344 44.2097 112.097 43.6035 112.097 42.8365C112.097 42.1108 112.34 41.5087 112.827 41.0304C113.313 40.5438 113.948 40.3005 114.732 40.3005C115.045 40.3005 115.325 40.3334 115.573 40.3994V41.6613C115.292 41.5871 115.049 41.5499 114.843 41.5499C114.472 41.5499 114.163 41.6654 113.915 41.8963C113.676 42.119 113.556 42.42 113.556 42.7994C113.556 43.22 113.68 43.5499 113.928 43.7891C114.175 44.0283 114.509 44.1479 114.93 44.1479C115.35 44.1479 115.713 44.0077 116.018 43.7273C116.332 43.4386 116.488 43.0963 116.488 42.7005V39.4097H111.268V38.2345H119.259ZM118.589 38.2345H125.616V39.4097H124.304V46.3994H122.845V42.4283H121.063C120.915 42.4283 120.807 42.4695 120.742 42.552C120.676 42.6262 120.643 42.7623 120.643 42.9602C120.643 43.1994 120.684 43.4922 120.766 43.8386H119.603C119.339 43.3685 119.207 42.8695 119.207 42.3417C119.207 42.0118 119.311 41.752 119.517 41.5623C119.731 41.3644 120.045 41.2654 120.457 41.2654H122.845V39.4097H118.589V38.2345ZM124.944 39.4097V38.2345H132.787V39.4097H131.476V46.3994H130.053V43.084H127.863V44.6551H126.626L126.23 43.7767C125.999 43.2572 125.884 42.8819 125.884 42.651C125.884 42.2963 126.065 42.0736 126.428 41.9829V39.4097H124.944ZM130.053 39.4097H127.863V41.9087H130.053V39.4097ZM133.357 49.3437H131.613L130.116 47.2159H131.588L133.357 49.3437Z" fill="black"/>
</svg>
