<svg width="65" height="64" viewBox="0 0 65 64" fill="none" xmlns="http://www.w3.org/2000/svg">
<path fill-rule="evenodd" clip-rule="evenodd" d="M31.8923 63.8998H31.8026L31.5686 63.8959H31.5101C23.0529 63.6962 15.3872 60.1442 9.78802 54.5206C4.02119 48.7326 0.445679 40.7436 0.445679 31.9519V0H3.88862C14.5489 0 24.2421 4.1707 31.2177 11.1767C36.0487 16.0288 39.5736 22.2241 41.2151 29.332L41.2463 29.4808L41.3126 29.7745L41.3282 29.8489L41.3477 29.9194C41.3711 30.0447 41.3984 30.1661 41.4218 30.2914L41.4373 30.3658L41.4529 30.4363L41.5114 30.7339L41.5426 30.8828L41.6089 31.2548L41.6206 31.3331L41.6362 31.4075L41.6869 31.7051L41.6986 31.7835L41.7103 31.8579L41.761 32.1594L41.7727 32.2338L41.7844 32.3121L41.7961 32.3866L41.8273 32.6137L41.839 32.6881L41.8507 32.7664L41.8624 32.8408L41.8702 32.9152L41.8935 33.068L41.9052 33.1463L41.9208 33.2951L41.9286 33.3734L41.9598 33.6045L41.9754 33.7611L41.9871 33.8355V33.8434C42.1587 35.3707 42.2484 36.9332 42.2484 38.5232V42.3062C42.2484 42.7683 42.1587 43.203 41.9949 43.6063C41.952 43.7081 41.9091 43.8021 41.8624 43.9L41.8312 43.9549V43.9588L41.7961 44.0136L41.7688 44.0645L41.7649 44.0723C41.7103 44.1624 41.6518 44.2525 41.5933 44.3386L41.5855 44.3426L41.5504 44.3895C41.4607 44.5109 41.3672 44.6206 41.2619 44.7263L41.258 44.7342L41.219 44.7694L41.2151 44.7733L41.18 44.8125L41.1683 44.8203L41.1215 44.8634V44.8673L41.0786 44.9065L41.0708 44.9104L41.0357 44.9378L41.0279 44.9496L40.9928 44.977L40.9772 44.9887L40.9266 45.0279L40.8759 45.067L40.8642 45.0788L40.8252 45.1062L40.8135 45.114C40.7862 45.1375 40.7511 45.1571 40.7199 45.1806L40.6653 45.2159L40.6575 45.2198L40.6107 45.2511H40.6068L40.5678 45.2785L40.5561 45.2863L40.5133 45.3098L40.5016 45.3177L40.447 45.349H40.4431L40.3885 45.3764L40.3846 45.3803L40.3417 45.4038L40.2715 45.4391L40.2169 45.4626H40.213L40.1545 45.49L40.096 45.5135H40.0921L40.0454 45.537H40.0337L39.983 45.5566L39.9752 45.5605L39.9128 45.584L39.905 45.5879L39.8504 45.6036L39.8036 45.6192L39.7412 45.6388L39.6632 45.6584H39.6593L39.597 45.674L39.5775 45.6819H39.5658L39.5034 45.6975H39.4917L39.4683 45.7054L39.4098 45.7171H39.402L39.3357 45.725L39.2811 45.7367H39.2616L39.2109 45.7445H39.2031L39.1486 45.7524H39.1369L39.0706 45.7602H39.0628L39.0043 45.7641H38.977H38.9575H38.9068L38.8873 45.768H38.8678H38.8015C36.8987 45.768 35.3547 44.2172 35.3547 42.3062V38.5232C35.3547 29.4808 31.9117 21.6602 26.3438 16.068C21.388 11.0905 14.7399 7.86363 7.33156 7.09606V31.9519C7.33156 38.8325 10.135 45.0866 14.6541 49.6294C19.0992 54.0938 25.2052 56.8938 31.9234 56.98H31.9429H31.9468H31.9741H31.978H32.2198H32.2237H32.2549C39.1057 56.98 45.3365 54.1643 49.8556 49.6254C54.3708 45.0866 57.1782 38.8286 57.1782 31.9479V7.10781C53.3258 7.53075 49.684 8.65077 46.3893 10.3425C43.6248 11.7641 41.0903 13.5851 38.8678 15.7273C37.6201 13.7692 36.2125 11.9364 34.6645 10.2407C37.2341 7.85579 40.1311 5.8194 43.2699 4.20594C48.5104 1.51947 54.4098 0 60.625 0H64.0719V31.9519C64.0719 40.7436 60.4925 48.7326 54.7295 54.5206C48.9627 60.3087 41.0084 63.9037 32.2588 63.9037H31.939H31.9351H31.9156H31.9117H31.9H31.8923V63.8998Z" fill="#1B9644"/>
</svg>
